<svg xmlns="http://www.w3.org/2000/svg" width="1280" height="640">
  <rect width="100%" height="100%" fill="white"/>
  <!-- NIL Node Information -->
  <rect x="20" y="20" width="180" height="80" fill="lightgray" stroke="black" stroke-width="1" rx="5" />
  <text x="30" y="40" font-size="14px" font-weight="bold" fill="black">NIL Node Info:</text>
  <text x="30" y="55" font-size="12px" fill="black">Parent: 0x600f8b7952c0</text>
  <text x="30" y="70" font-size="12px" fill="black">Left: 0x600f8b7952c0</text>
  <text x="30" y="85" font-size="12px" fill="black">Right: 0x600f8b7952c0</text>
  <line x1="640" y1="80" x2="320" y2="160" stroke="black" stroke-width="2" />
  <line x1="320" y1="160" x2="160" y2="240" stroke="black" stroke-width="2" />
  <line x1="160" y1="240" x2="80" y2="320" stroke="black" stroke-width="2" />
  <line x1="80" y1="320" x2="40" y2="400" stroke="black" stroke-width="2" />
  <line x1="40" y1="400" x2="20" y2="480" stroke="gray" stroke-width="1" stroke-dasharray="3,3" />
  <rect x="10" y="470" width="20" height="20" fill="gray" stroke="black" stroke-width="1" />
  <text x="20" y="480" text-anchor="middle" dy=".3em" font-size="10px" fill="white" font-weight="bold">NIL</text>
  <line x1="40" y1="400" x2="60" y2="480" stroke="gray" stroke-width="1" stroke-dasharray="3,3" />
  <rect x="50" y="470" width="20" height="20" fill="gray" stroke="black" stroke-width="1" />
  <text x="60" y="480" text-anchor="middle" dy=".3em" font-size="10px" fill="white" font-weight="bold">NIL</text>
  <circle cx="40" cy="400" r="20" fill="red" stroke="black" stroke-width="2" />
  <text x="40" y="400" text-anchor="middle" dy=".3em" font-size="18px" fill="white" font-weight="bold">0</text>
  <line x1="80" y1="320" x2="120" y2="400" stroke="gray" stroke-width="1" stroke-dasharray="3,3" />
  <rect x="110" y="390" width="20" height="20" fill="gray" stroke="black" stroke-width="1" />
  <text x="120" y="400" text-anchor="middle" dy=".3em" font-size="10px" fill="white" font-weight="bold">NIL</text>
  <circle cx="80" cy="320" r="20" fill="black" stroke="black" stroke-width="2" />
  <text x="80" y="320" text-anchor="middle" dy=".3em" font-size="18px" fill="white" font-weight="bold">1</text>
  <line x1="160" y1="240" x2="240" y2="320" stroke="black" stroke-width="2" />
  <line x1="240" y1="320" x2="200" y2="400" stroke="gray" stroke-width="1" stroke-dasharray="3,3" />
  <rect x="190" y="390" width="20" height="20" fill="gray" stroke="black" stroke-width="1" />
  <text x="200" y="400" text-anchor="middle" dy=".3em" font-size="10px" fill="white" font-weight="bold">NIL</text>
  <line x1="240" y1="320" x2="280" y2="400" stroke="gray" stroke-width="1" stroke-dasharray="3,3" />
  <rect x="270" y="390" width="20" height="20" fill="gray" stroke="black" stroke-width="1" />
  <text x="280" y="400" text-anchor="middle" dy=".3em" font-size="10px" fill="white" font-weight="bold">NIL</text>
  <circle cx="240" cy="320" r="20" fill="black" stroke="black" stroke-width="2" />
  <text x="240" y="320" text-anchor="middle" dy=".3em" font-size="18px" fill="white" font-weight="bold">3</text>
  <circle cx="160" cy="240" r="20" fill="red" stroke="black" stroke-width="2" />
  <text x="160" y="240" text-anchor="middle" dy=".3em" font-size="18px" fill="white" font-weight="bold">1</text>
  <line x1="320" y1="160" x2="480" y2="240" stroke="black" stroke-width="2" />
  <line x1="480" y1="240" x2="400" y2="320" stroke="gray" stroke-width="1" stroke-dasharray="3,3" />
  <rect x="390" y="310" width="20" height="20" fill="gray" stroke="black" stroke-width="1" />
  <text x="400" y="320" text-anchor="middle" dy=".3em" font-size="10px" fill="white" font-weight="bold">NIL</text>
  <line x1="480" y1="240" x2="560" y2="320" stroke="gray" stroke-width="1" stroke-dasharray="3,3" />
  <rect x="550" y="310" width="20" height="20" fill="gray" stroke="black" stroke-width="1" />
  <text x="560" y="320" text-anchor="middle" dy=".3em" font-size="10px" fill="white" font-weight="bold">NIL</text>
  <circle cx="480" cy="240" r="20" fill="black" stroke="black" stroke-width="2" />
  <text x="480" y="240" text-anchor="middle" dy=".3em" font-size="18px" fill="white" font-weight="bold">3</text>
  <circle cx="320" cy="160" r="20" fill="black" stroke="black" stroke-width="2" />
  <text x="320" y="160" text-anchor="middle" dy=".3em" font-size="18px" fill="white" font-weight="bold">3</text>
  <line x1="640" y1="80" x2="960" y2="160" stroke="black" stroke-width="2" />
  <line x1="960" y1="160" x2="800" y2="240" stroke="black" stroke-width="2" />
  <line x1="800" y1="240" x2="720" y2="320" stroke="gray" stroke-width="1" stroke-dasharray="3,3" />
  <rect x="710" y="310" width="20" height="20" fill="gray" stroke="black" stroke-width="1" />
  <text x="720" y="320" text-anchor="middle" dy=".3em" font-size="10px" fill="white" font-weight="bold">NIL</text>
  <line x1="800" y1="240" x2="880" y2="320" stroke="gray" stroke-width="1" stroke-dasharray="3,3" />
  <rect x="870" y="310" width="20" height="20" fill="gray" stroke="black" stroke-width="1" />
  <text x="880" y="320" text-anchor="middle" dy=".3em" font-size="10px" fill="white" font-weight="bold">NIL</text>
  <circle cx="800" cy="240" r="20" fill="black" stroke="black" stroke-width="2" />
  <text x="800" y="240" text-anchor="middle" dy=".3em" font-size="18px" fill="white" font-weight="bold">5</text>
  <line x1="960" y1="160" x2="1120" y2="240" stroke="black" stroke-width="2" />
  <line x1="1120" y1="240" x2="1040" y2="320" stroke="gray" stroke-width="1" stroke-dasharray="3,3" />
  <rect x="1030" y="310" width="20" height="20" fill="gray" stroke="black" stroke-width="1" />
  <text x="1040" y="320" text-anchor="middle" dy=".3em" font-size="10px" fill="white" font-weight="bold">NIL</text>
  <line x1="1120" y1="240" x2="1200" y2="320" stroke="black" stroke-width="2" />
  <line x1="1200" y1="320" x2="1160" y2="400" stroke="gray" stroke-width="1" stroke-dasharray="3,3" />
  <rect x="1150" y="390" width="20" height="20" fill="gray" stroke="black" stroke-width="1" />
  <text x="1160" y="400" text-anchor="middle" dy=".3em" font-size="10px" fill="white" font-weight="bold">NIL</text>
  <line x1="1200" y1="320" x2="1240" y2="400" stroke="gray" stroke-width="1" stroke-dasharray="3,3" />
  <rect x="1230" y="390" width="20" height="20" fill="gray" stroke="black" stroke-width="1" />
  <text x="1240" y="400" text-anchor="middle" dy=".3em" font-size="10px" fill="white" font-weight="bold">NIL</text>
  <circle cx="1200" cy="320" r="20" fill="red" stroke="black" stroke-width="2" />
  <text x="1200" y="320" text-anchor="middle" dy=".3em" font-size="18px" fill="white" font-weight="bold">9</text>
  <circle cx="1120" cy="240" r="20" fill="black" stroke="black" stroke-width="2" />
  <text x="1120" y="240" text-anchor="middle" dy=".3em" font-size="18px" fill="white" font-weight="bold">7</text>
  <circle cx="960" cy="160" r="20" fill="black" stroke="black" stroke-width="2" />
  <text x="960" y="160" text-anchor="middle" dy=".3em" font-size="18px" fill="white" font-weight="bold">5</text>
  <circle cx="640" cy="80" r="20" fill="black" stroke="black" stroke-width="2" />
  <text x="640" y="80" text-anchor="middle" dy=".3em" font-size="18px" fill="white" font-weight="bold">4</text>
</svg>
