<svg xmlns="http://www.w3.org/2000/svg" width="300" height="400">
  <rect width="100%" height="100%" fill="white"/>
  <!-- NIL Node Information -->
  <rect x="20" y="20" width="180" height="80" fill="lightgray" stroke="black" stroke-width="1" rx="5" />
  <text x="30" y="40" font-size="14px" font-weight="bold" fill="black">NIL Node Info:</text>
  <text x="30" y="55" font-size="12px" fill="black">Parent: 0x600f8b7952c0</text>
  <text x="30" y="70" font-size="12px" fill="black">Left: 0x600f8b7952c0</text>
  <text x="30" y="85" font-size="12px" fill="black">Right: 0x600f8b7952c0</text>
  <line x1="150" y1="160" x2="75" y2="240" stroke="black" stroke-width="2" />
  <line x1="75" y1="240" x2="38" y2="320" stroke="gray" stroke-width="1" stroke-dasharray="3,3" />
  <rect x="28" y="310" width="20" height="20" fill="gray" stroke="black" stroke-width="1" />
  <text x="38" y="320" text-anchor="middle" dy=".3em" font-size="10px" fill="white" font-weight="bold">NIL</text>
  <line x1="75" y1="240" x2="112" y2="320" stroke="gray" stroke-width="1" stroke-dasharray="3,3" />
  <rect x="102" y="310" width="20" height="20" fill="gray" stroke="black" stroke-width="1" />
  <text x="112" y="320" text-anchor="middle" dy=".3em" font-size="10px" fill="white" font-weight="bold">NIL</text>
  <circle cx="75" cy="240" r="20" fill="red" stroke="black" stroke-width="2" />
  <text x="75" y="240" text-anchor="middle" dy=".3em" font-size="18px" fill="white" font-weight="bold">3</text>
  <line x1="150" y1="160" x2="225" y2="240" stroke="black" stroke-width="2" />
  <line x1="225" y1="240" x2="188" y2="320" stroke="gray" stroke-width="1" stroke-dasharray="3,3" />
  <rect x="178" y="310" width="20" height="20" fill="gray" stroke="black" stroke-width="1" />
  <text x="188" y="320" text-anchor="middle" dy=".3em" font-size="10px" fill="white" font-weight="bold">NIL</text>
  <line x1="225" y1="240" x2="262" y2="320" stroke="gray" stroke-width="1" stroke-dasharray="3,3" />
  <rect x="252" y="310" width="20" height="20" fill="gray" stroke="black" stroke-width="1" />
  <text x="262" y="320" text-anchor="middle" dy=".3em" font-size="10px" fill="white" font-weight="bold">NIL</text>
  <circle cx="225" cy="240" r="20" fill="red" stroke="black" stroke-width="2" />
  <text x="225" y="240" text-anchor="middle" dy=".3em" font-size="18px" fill="white" font-weight="bold">7</text>
  <circle cx="150" cy="160" r="20" fill="black" stroke="black" stroke-width="2" />
  <text x="150" y="160" text-anchor="middle" dy=".3em" font-size="18px" fill="white" font-weight="bold">4</text>
</svg>
