<svg xmlns="http://www.w3.org/2000/svg" width="320" height="480">
  <rect width="100%" height="100%" fill="white"/>
  <!-- NIL Node Information -->
  <rect x="20" y="20" width="180" height="80" fill="lightgray" stroke="black" stroke-width="1" rx="5" />
  <text x="30" y="40" font-size="14px" font-weight="bold" fill="black">NIL Node Info:</text>
  <text x="30" y="55" font-size="12px" fill="black">Parent: 0x55cc4f45c2c0</text>
  <text x="30" y="70" font-size="12px" fill="black">Left: 0x55cc4f45c2c0</text>
  <text x="30" y="85" font-size="12px" fill="black">Right: 0x55cc4f45c2c0</text>
  <line x1="160" y1="160" x2="80" y2="240" stroke="black" stroke-width="2" />
  <line x1="80" y1="240" x2="40" y2="320" stroke="gray" stroke-width="1" stroke-dasharray="3,3" />
  <rect x="30" y="310" width="20" height="20" fill="gray" stroke="black" stroke-width="1" />
  <text x="40" y="320" text-anchor="middle" dy=".3em" font-size="10px" fill="white" font-weight="bold">NIL</text>
  <line x1="80" y1="240" x2="120" y2="320" stroke="gray" stroke-width="1" stroke-dasharray="3,3" />
  <rect x="110" y="310" width="20" height="20" fill="gray" stroke="black" stroke-width="1" />
  <text x="120" y="320" text-anchor="middle" dy=".3em" font-size="10px" fill="white" font-weight="bold">NIL</text>
  <circle cx="80" cy="240" r="20" fill="black" stroke="black" stroke-width="2" />
  <text x="80" y="240" text-anchor="middle" dy=".3em" font-size="18px" fill="white" font-weight="bold">0</text>
  <line x1="160" y1="160" x2="240" y2="240" stroke="black" stroke-width="2" />
  <line x1="240" y1="240" x2="200" y2="320" stroke="black" stroke-width="2" />
  <line x1="200" y1="320" x2="180" y2="400" stroke="gray" stroke-width="1" stroke-dasharray="3,3" />
  <rect x="170" y="390" width="20" height="20" fill="gray" stroke="black" stroke-width="1" />
  <text x="180" y="400" text-anchor="middle" dy=".3em" font-size="10px" fill="white" font-weight="bold">NIL</text>
  <line x1="200" y1="320" x2="220" y2="400" stroke="gray" stroke-width="1" stroke-dasharray="3,3" />
  <rect x="210" y="390" width="20" height="20" fill="gray" stroke="black" stroke-width="1" />
  <text x="220" y="400" text-anchor="middle" dy=".3em" font-size="10px" fill="white" font-weight="bold">NIL</text>
  <circle cx="200" cy="320" r="20" fill="red" stroke="black" stroke-width="2" />
  <text x="200" y="320" text-anchor="middle" dy=".3em" font-size="18px" fill="white" font-weight="bold">2</text>
  <line x1="240" y1="240" x2="280" y2="320" stroke="black" stroke-width="2" />
  <line x1="280" y1="320" x2="260" y2="400" stroke="gray" stroke-width="1" stroke-dasharray="3,3" />
  <rect x="250" y="390" width="20" height="20" fill="gray" stroke="black" stroke-width="1" />
  <text x="260" y="400" text-anchor="middle" dy=".3em" font-size="10px" fill="white" font-weight="bold">NIL</text>
  <line x1="280" y1="320" x2="300" y2="400" stroke="gray" stroke-width="1" stroke-dasharray="3,3" />
  <rect x="290" y="390" width="20" height="20" fill="gray" stroke="black" stroke-width="1" />
  <text x="300" y="400" text-anchor="middle" dy=".3em" font-size="10px" fill="white" font-weight="bold">NIL</text>
  <circle cx="280" cy="320" r="20" fill="red" stroke="black" stroke-width="2" />
  <text x="280" y="320" text-anchor="middle" dy=".3em" font-size="18px" fill="white" font-weight="bold">4</text>
  <circle cx="240" cy="240" r="20" fill="black" stroke="black" stroke-width="2" />
  <text x="240" y="240" text-anchor="middle" dy=".3em" font-size="18px" fill="white" font-weight="bold">3</text>
  <circle cx="160" cy="160" r="20" fill="black" stroke="black" stroke-width="2" />
  <text x="160" y="160" text-anchor="middle" dy=".3em" font-size="18px" fill="white" font-weight="bold">1</text>
</svg>
